<svg width="1440" height="215" viewBox="0 0 1440 215" fill="none" xmlns="http://www.w3.org/2000/svg">
<path d="M1489.25 250H-1309V121.274C-1294.94 121.74 -1273.5 122.249 -1247.66 122.058C-1102.76 120.998 -1033.77 99.4113 -939.139 86.9594C-741.642 60.9853 -353.904 64.5354 -138.983 88.9305C-32.5587 101.012 21.2039 117.035 121.474 115.159C214.296 113.421 233.858 98.4576 318.971 97.9913C439.451 97.3343 456.228 127.028 586.1 130.621C741.817 134.923 834.768 95.4691 1066.14 98.7861C1102.09 99.3054 1127.81 100.651 1148.08 101.743C1369.03 113.612 1470.79 153.426 1500 166.217L1489.25 249.989V250Z" fill="#BFB61F"/>
<path d="M1453.91 299.035L-1355.34 194.487L-1350.21 56.6102C-1336.12 57.6348 -1314.61 58.9807 -1288.66 59.742C-1143.15 64.0207 -1073.03 43.4768 -977.527 33.6756C-778.218 13.2341 -389.096 31.5233 -174.303 65.6824C-67.9414 82.5984 -14.6061 101.769 86.1336 103.507C179.389 105.113 199.625 89.8168 285.091 92.4974C406.071 96.2951 421.73 128.726 551.97 137.427C708.129 147.853 803.018 109.067 1035.17 121.265C1071.24 123.164 1097 125.566 1117.31 127.493C1338.65 148.461 1439.23 194.907 1468.05 209.699L1453.91 299.024L1453.91 299.035Z" fill="#007299"/>
</svg>
