<?xml version="1.0" encoding="utf-8"?>
<svg width="25px" height="25px" viewbox="0 0 25 25" version="1.1" xmlns:xlink="http://www.w3.org/1999/xlink" xmlns="http://www.w3.org/2000/svg">
  <g id="error">
    <path d="M12.5 0C5.59121 0 0 5.59067 0 12.5C0 19.4088 5.59067 25 12.5 25C19.4088 25 25 19.4093 25 12.5C25 5.59116 19.4093 0 12.5 0ZM12.5 23.0469C6.6707 23.0469 1.95313 18.3297 1.95313 12.5C1.95313 6.67065 6.67026 1.95313 12.5 1.95313C18.3293 1.95313 23.0469 6.67026 23.0469 12.5C23.0469 18.3293 18.3297 23.0469 12.5 23.0469Z" id="Shape" fill="#FFFFFF" stroke="none" />
    <path d="M8.83939 7.45831L5.94379 4.56271L8.83939 1.6671C9.22074 1.28575 9.22079 0.667444 8.83944 0.286047C8.458 -0.0953491 7.83968 -0.0953003 7.45839 0.286047L4.56273 3.18165L1.66708 0.286047C1.28578 -0.0953491 0.667371 -0.0953491 0.286023 0.286047C-0.0953247 0.667444 -0.0953247 1.28575 0.286072 1.6671L3.18168 4.56271L0.286072 7.45831C-0.0953247 7.83971 -0.0953735 8.45802 0.286023 8.83937C0.667517 9.22081 1.28583 9.22067 1.66708 8.83937L4.56273 5.94376L7.45839 8.83937C7.83964 9.22072 8.45804 9.22076 8.83944 8.83937C9.22084 8.45797 9.22079 7.83966 8.83939 7.45831Z" transform="translate(7.937256 7.9372864)" id="Path" fill="#FFFFFF" stroke="none" />
  </g>
</svg>