<svg width="43" height="20" viewBox="0 0 43 20" fill="none" xmlns="http://www.w3.org/2000/svg">
<g clip-path="url(#clip0_786_1910)">
<path d="M42.8678 9.6795L38.3225 5.13411C38.1592 4.94345 37.8722 4.92122 37.6816 5.08454C37.4909 5.24782 37.4687 5.53477 37.632 5.72543C37.6472 5.7432 37.6638 5.7598 37.6816 5.775L41.4497 9.54766H23.4545C23.2035 9.54766 23 9.75118 23 10.0022C23 10.2533 23.2035 10.4568 23.4545 10.4568H41.4497L37.6816 14.2248C37.4909 14.3881 37.4687 14.6751 37.632 14.8657C37.7953 15.0564 38.0822 15.0786 38.2729 14.9153C38.2907 14.9001 38.3073 14.8835 38.3225 14.8657L42.8679 10.3203C43.0441 10.1431 43.0441 9.8568 42.8678 9.6795Z" fill="#007299"/>
</g>
<g clip-path="url(#clip1_786_1910)">
<path d="M19.8678 9.6795L15.3225 5.13411C15.1592 4.94345 14.8722 4.92122 14.6816 5.08454C14.4909 5.24782 14.4687 5.53477 14.632 5.72543C14.6472 5.7432 14.6638 5.7598 14.6816 5.775L18.4497 9.54766H0.454523C0.203512 9.54766 0 9.75118 0 10.0022C0 10.2533 0.203512 10.4568 0.454523 10.4568H18.4497L14.6816 14.2248C14.4909 14.3881 14.4687 14.6751 14.632 14.8657C14.7953 15.0564 15.0822 15.0786 15.2729 14.9153C15.2907 14.9001 15.3073 14.8835 15.3225 14.8657L19.8679 10.3203C20.0441 10.1431 20.0441 9.8568 19.8678 9.6795Z" fill="white"/>
</g>
<defs>
<clipPath id="clip0_786_1910">
<rect width="20" height="20" fill="white" transform="translate(23)"/>
</clipPath>
<clipPath id="clip1_786_1910">
<rect width="20" height="20" fill="white"/>
</clipPath>
</defs>
</svg>
