<svg width="42" height="20" viewBox="0 0 42 20" fill="none" xmlns="http://www.w3.org/2000/svg">
<g clip-path="url(#clip0_786_1911)">
<path d="M41.8678 9.6795L37.3225 5.13411C37.1592 4.94345 36.8722 4.92122 36.6816 5.08454C36.4909 5.24782 36.4687 5.53477 36.632 5.72543C36.6472 5.7432 36.6638 5.7598 36.6816 5.775L40.4497 9.54766H22.4545C22.2035 9.54766 22 9.75118 22 10.0022C22 10.2533 22.2035 10.4568 22.4545 10.4568H40.4497L36.6816 14.2248C36.4909 14.3881 36.4687 14.6751 36.632 14.8657C36.7953 15.0564 37.0822 15.0786 37.2729 14.9153C37.2907 14.9001 37.3073 14.8835 37.3225 14.8657L41.8679 10.3203C42.0441 10.1431 42.0441 9.8568 41.8678 9.6795Z" fill="#007299"/>
</g>
<g clip-path="url(#clip1_786_1911)">
<path d="M19.8678 9.6795L15.3225 5.13411C15.1592 4.94345 14.8722 4.92122 14.6816 5.08454C14.4909 5.24782 14.4687 5.53477 14.632 5.72543C14.6472 5.7432 14.6638 5.7598 14.6816 5.775L18.4497 9.54766H0.454523C0.203512 9.54766 0 9.75118 0 10.0022C0 10.2533 0.203512 10.4568 0.454523 10.4568H18.4497L14.6816 14.2248C14.4909 14.3881 14.4687 14.6751 14.632 14.8657C14.7953 15.0564 15.0822 15.0786 15.2729 14.9153C15.2907 14.9001 15.3073 14.8835 15.3225 14.8657L19.8679 10.3203C20.0441 10.1431 20.0441 9.8568 19.8678 9.6795Z" fill="#BFB61F"/>
</g>
<defs>
<clipPath id="clip0_786_1911">
<rect width="20" height="20" fill="white" transform="translate(22)"/>
</clipPath>
<clipPath id="clip1_786_1911">
<rect width="20" height="20" fill="white"/>
</clipPath>
</defs>
</svg>
