<svg width="322" height="283" viewBox="0 0 322 283" fill="none" xmlns="http://www.w3.org/2000/svg">
<path d="M128.736 92.0067C128.416 90.8009 127.448 87.618 127.031 84.6213C114.654 87.9372 107.95 90.4197 93.1394 96.0673C90.2625 97.1667 85.379 99.4718 82.218 101.431C80.895 102.247 80.4333 103.657 81.1525 104.392C81.7918 105.057 82.8307 105.075 83.7275 105.075C83.0171 105.439 82.3068 105.802 81.5965 106.166C79.6608 107.159 77.2634 107.992 75.532 109.295C74.0758 110.395 74.8039 112.62 76.5265 113.054C77.4854 113.294 78.5509 113.356 79.6519 113.32C78.6752 114.198 77.6275 115.298 77.663 116.326C77.7518 119.314 83.541 118.126 85.1659 117.709C91.994 115.962 98.6356 113.285 105.064 110.262C103.217 113.817 100.811 117.709 99.8875 120.413C99.7277 120.883 99.63 121.406 99.7543 121.885C101.193 127.284 114.085 113.48 115.604 111.822C117.104 110.182 118.667 108.604 120.452 107.265C124.048 104.561 127.928 102.247 131.417 99.4541C130.281 97.078 129.42 94.5246 128.745 92.0067H128.736Z" fill="#E0785E"/>
<path d="M311.203 228.711C311.025 227.682 310.723 226.663 310.368 225.652C310.368 225.59 310.368 225.519 310.332 225.439C305.706 214.117 302.563 202.255 301.018 190.117C300.992 189.904 300.85 189.771 300.69 189.709C300.628 189.541 300.494 189.408 300.272 189.381C294.741 188.814 290.834 193.442 285.666 194.337C285.631 194.24 285.604 194.142 285.568 194.045C285.355 193.477 284.432 193.726 284.654 194.293C284.689 194.382 284.716 194.479 284.752 194.568C284.459 194.843 284.547 195.428 285.027 195.384C285.693 197.565 285.933 199.852 285.826 202.131C285.702 204.781 285.142 207.397 284.476 209.968C283.793 212.592 282.994 215.181 282.345 217.814C281.635 220.696 281.218 223.604 281.2 226.583C281.2 227.017 281.2 227.461 281.351 227.868C281.821 229.198 283.509 229.216 284.485 228.489C285.054 228.072 285.462 227.487 285.826 226.893C286.865 225.226 287.478 223.4 288.339 221.653C288.792 220.74 289.236 219.827 289.688 218.914C290.47 221.325 291.242 223.737 292.024 226.148C293.063 229.367 293.799 232.975 295.273 236.025C295.939 237.399 297.218 238.339 298.701 237.479C300.104 236.663 300.246 233.613 299.997 231.22C300.636 232.736 301.338 234.234 302.146 235.679C302.83 236.912 304.055 239.678 305.964 238.977C307.891 238.277 307.251 235.298 307.065 233.835C306.763 231.521 306.257 229.243 305.662 226.991C306.204 227.797 306.701 228.533 307.047 229.083C307.669 230.058 308.61 231.681 310.022 231.353C311.229 231.078 311.389 229.695 311.211 228.693L311.203 228.711Z" fill="#E0785E"/>
<path d="M275.846 8.00169C275.526 7.90416 275.198 7.8421 274.869 7.76231C275.286 6.41468 275.5 5.66994 275.464 5.71427C275.109 6.06891 274.656 6.70726 274.123 7.57612C269.275 6.56541 264.187 7.26581 259.81 9.68622C257.182 11.1314 255.184 13.1705 253.204 15.3959C250.94 17.9404 248.454 20.5647 245.008 20.9637C241.537 21.1233 238.1 19.9175 234.709 19.3678C231.397 18.8359 228.023 18.8093 224.693 19.226C210.46 21.0169 198.508 30.4414 191.591 42.7119C188.288 48.5722 186.078 54.9557 184.728 61.5254C180.652 69.1146 181.807 78.4682 187.445 84.8251C187.303 87.343 187.489 89.8609 188.209 92.3523C189.682 97.4325 193.58 101.812 199.014 102.592C204.777 103.426 208.267 99.1347 212.422 96.005C215.547 93.6467 218.424 93.4428 222.109 94.622C225.146 95.5883 228.085 95.9341 231.237 95.3401C238.997 93.8861 244.822 88.203 250.194 82.8391C250.576 82.4579 270.19 22.6926 274.594 8.6489C274.931 8.7287 275.26 8.81736 275.597 8.91488C276.183 9.0922 276.432 8.17014 275.846 8.00169V8.00169Z" fill="#24334A"/>
<path d="M299.011 31.4347C298.212 29.6881 296.934 28.2252 295.833 26.6737C294.989 25.4945 294.039 24.1114 294.066 22.5865C294.092 21.1768 294.971 19.9444 295.62 18.7652C297.44 15.476 297.626 11.4774 295.637 8.18817C294.536 6.37065 291.473 4.34922 290.283 6.96467C290.052 6.91148 289.804 6.99127 289.751 7.29271C288.081 17.0187 284.743 25.9821 280.401 34.8037C278.074 39.5293 271.602 51.0727 280.543 52.908C287.708 54.3797 294.519 48.6789 297.804 43.519C299.598 40.6996 300.45 34.5998 298.994 31.4258L299.011 31.4347Z" fill="#24334A"/>
<path d="M291.775 33.0038L287.495 45.3363C287.495 45.3363 282.381 43.1287 273.928 36.4792L277.409 25.8135L291.784 33.0126L291.775 33.0038Z" fill="#E0785E"/>
<path d="M271.379 14.1814C270.944 11.5571 272.729 5.96272 278.625 4.39345C283.952 2.9749 290.487 3.96788 294.456 10.2804C298.425 16.593 298.727 19.1552 299.58 23.996C300.246 27.7818 300.237 32.3034 295.779 33.7397C290.709 35.3711 286.11 31.7981 283.366 29.7057C280.623 27.6134 273.049 24.2088 271.379 14.1814V14.1814Z" fill="#E0785E"/>
<path d="M293 8.31216C293.222 5.54599 289.848 3.63094 288.294 3.11672C285.852 2.30105 282.505 2.62909 279.992 3.55115C277.888 4.32249 275.934 5.42186 274.008 6.5567C272.338 7.54082 270.793 8.84412 269.897 10.5907C268.867 12.5855 269.195 14.3942 269.87 16.4422C270.474 18.2597 271.078 20.1393 269.568 21.7352C268.698 22.6573 267.499 23.1892 266.487 23.934C265.51 24.6521 264.738 25.45 264.32 26.4607C264.258 26.5317 264.214 26.6115 264.205 26.7356C264.081 27.1168 264.01 27.5335 263.992 27.9768C263.992 28.1807 264.09 28.3049 264.232 28.3758C264.631 32.3123 267.615 35.3888 271.468 35.9473C271.477 35.9473 271.486 35.965 271.495 35.965C277.515 38.5805 273.919 30.6277 281.226 27.7197C285.728 26.2657 286.776 21.7529 284.13 18.18C285.231 16.6373 287.016 19.1818 286.794 17.3377C286.048 11.0074 292.672 12.2752 292.991 8.31216H293Z" fill="#24334A"/>
<path d="M296.889 14.5448C296.889 14.5448 300.45 17.6124 300.84 18.3748C301.231 19.1373 300.645 19.8023 298.763 21.1233C296.88 22.4532 296.889 14.5359 296.889 14.5359V14.5448Z" fill="#E0785E"/>
<path d="M101.779 224.969C97.117 221.485 94.8795 218.222 93.8495 216.937C92.2957 216.121 89.0548 213.239 82.9459 207.264C82.4398 206.767 81.8804 206.147 81.2855 205.473C78.2755 205.987 75.3187 206.812 72.5484 208.106C68.4018 210.048 64.0688 213.789 62.5327 218.346C66.848 219.924 68.8547 223.081 75.736 228.01C75.7183 228.338 78.8082 227.78 79.19 227.593C79.2433 227.567 89.623 224.402 94.7552 224.996C97.5521 225.324 100.331 225.865 103.031 225.882C102.613 225.572 102.187 225.271 101.77 224.96L101.779 224.969Z" fill="#E0785E"/>
<path d="M74.1468 229.624C74.1468 229.624 67.3809 225.475 68.4286 223.32C70.9148 218.196 83.8073 211.138 89.8362 212.149C92.2336 212.548 99.0795 217.912 99.0795 217.912L74.1468 229.633V229.624Z" fill="#24334A"/>
<path d="M40.326 234.199C36.8365 236.858 30.994 240.024 28.5078 243.765C26.0394 247.48 24.379 251.328 25.6931 255.796C25.9506 256.656 26.2525 257.605 26.6432 258.544C27.0605 258.341 27.4867 258.154 27.9307 257.977C30.8963 256.833 34.0839 256.621 37.2271 256.479C41.2938 256.293 45.3604 256.142 49.4271 255.982C50.5725 250.388 52.3661 244.935 54.6747 239.713C56.2907 236.069 56.5038 235.892 59.1143 232.47C51.6735 233.853 45.3516 234.083 40.326 234.199Z" fill="#E0785E"/>
<path d="M48.8057 257.126C48.8057 257.126 40.992 258.527 40.3349 256.222C38.7722 250.743 43.7001 236.912 48.8678 233.658C50.9189 232.363 59.6116 231.814 59.6116 231.814L48.8145 257.135L48.8057 257.126Z" fill="#24334A"/>
<path d="M284.6 108.24C284.6 108.24 284.032 103.497 278.492 100.172C272.96 96.8475 260.964 97.1755 253.195 98.1242C245.434 99.0728 233.172 103.453 233.172 103.453H233.163C229.816 109.49 225.687 115.102 220.999 120.342C230.358 120.112 240.142 121.486 249.324 123.286C256.747 124.749 264.853 126.584 270.536 131.779C276.44 124.633 281.253 116.663 284.84 108.16C284.689 108.214 284.592 108.249 284.592 108.249L284.6 108.24Z" fill="#E0785E"/>
<path d="M271.966 110.288C270.971 111.547 270.98 113.241 271.983 114.5C272.268 114.854 272.774 114.349 272.49 113.994C271.753 113.072 271.744 111.724 272.472 110.794C272.756 110.439 272.25 109.934 271.966 110.288V110.288Z" fill="#24334A"/>
<path d="M307.438 80.8708C305.813 73.0333 303.114 65.4706 299.535 58.307C299.34 57.9169 299.1 57.6597 298.887 57.2608C289.972 42.2685 275.1 32.1702 258.265 27.551C243.659 22.3822 232.098 28.5883 219.925 35.6899C205.629 44.0239 199.52 47.588 185.225 55.9132C173.354 59.3443 154.485 68.2102 143.466 73.3525C139.266 75.3118 134.454 78.5834 131.089 81.7574C127.848 83.1582 124.616 84.5502 121.375 85.951C121.002 86.1106 120.984 86.8021 120.975 86.8642C119.999 93.3097 122.139 99.6755 126.374 104.632C126.454 104.72 126.907 105.066 127.146 105.03C130.032 104.525 132.927 104.011 135.812 103.506C164.297 109.304 189.238 90.1002 213.878 79.2661C219.072 76.9875 224.409 75.037 229.896 73.6539C227.357 78.7784 225.323 84.2665 226.406 90.047C227.135 93.9037 229.905 97.1221 233.377 98.7268C232.551 99.64 231.61 100.819 231.592 101.493C231.565 102.681 218.522 120.369 219.321 120.573C219.321 120.573 238.633 118.861 246.402 117.913C254.172 116.964 267.508 125.671 273.04 128.995C279.255 121.849 284.565 108.072 284.583 108.231C280.143 113.48 279.255 113.48 278.367 121.016C276.148 121.016 277.479 124.562 278.474 126.389C283.277 146.452 269.293 169.929 282.727 187.865C282.976 189.753 283.224 191.651 283.464 193.539C283.633 194.843 283.571 196.722 284.423 197.821C286.27 200.198 291.855 198.318 294.048 197.618C297.022 196.669 299.864 194.869 301.071 191.864C301.87 189.878 301.897 187.785 301.702 185.684C302.341 184.966 302.705 184.434 303.54 183.148C305.982 179.398 306.337 173.937 306.763 169.69C307.376 163.679 308.459 134.235 308.255 128.206C311.744 101.989 310.465 95.606 307.411 80.8619L307.438 80.8708Z" fill="#7FB9D9"/>
<path d="M283.242 189.124C288.8 191.119 296.268 188.646 301.435 186.456C301.853 186.278 301.498 185.667 301.071 185.844C296.064 187.963 288.774 190.357 283.428 188.442C282.993 188.282 282.807 188.974 283.242 189.124V189.124Z" fill="#24334A"/>
<path d="M318.812 135.379C315.278 132.781 308.601 135.131 305.289 137.409C300.512 140.681 298.541 146.541 294.074 150.043C290.594 152.774 287.14 152.215 283.26 153.27C279.042 154.414 275.65 157.482 273.288 161.072C270.145 165.851 268.298 171.446 264.72 175.905C252.999 190.507 224.009 187.821 218.078 207.574C216.622 212.415 217.456 217.699 221.07 221.379C229.008 229.455 242.46 226.14 248.595 217.806C251.375 214.029 253.639 209.72 257.421 206.954C261.985 203.611 267.996 203.07 273.057 200.552C282.629 195.783 286.705 185.418 289.999 175.941C293.542 165.745 302.883 162.057 311.14 156.125C317.808 151.338 325.436 140.246 318.821 135.388L318.812 135.379Z" fill="#BFB61F"/>
<path d="M283.615 111.591C287.735 108.488 290.052 104.1 288.01 98.9663C285.932 93.7443 280.019 91.1998 274.958 89.8344C260.467 85.9245 245.79 90.9426 233.146 98.0886C232.746 98.3102 233.101 98.9309 233.51 98.7003C244.289 92.6094 256.666 87.9016 269.213 89.4443C274.656 90.1092 281.066 91.7317 285.027 95.7746C286.856 97.6364 287.983 99.9859 288.019 102.619C288.063 106.369 286.154 108.79 283.26 110.971C282.896 111.246 283.26 111.866 283.624 111.583L283.615 111.591Z" fill="#24334A"/>
<path d="M238.882 70.9855C238.056 69.3187 235.845 70.7462 234.7 71.2781C233.075 72.0317 231.894 72.5459 229.887 73.6719C229.354 74.7447 229.301 74.7358 228.839 75.8352C232.125 74.4344 240 73.2463 238.882 70.9855Z" fill="#24334A"/>
<path d="M272.853 124.429C270.669 121.424 265.51 119.385 262.811 118.463C257.661 116.698 252.369 115.785 246.953 115.448C234.273 114.969 225.03 115.191 217.146 121.796C216.435 122.39 210.602 123.623 209.172 124.084C206.428 124.961 203.72 125.937 201.048 127C195.694 129.119 190.49 131.584 185.456 134.377C175.245 140.042 166.144 147.046 157.646 155.026C140.838 170.807 126.951 189.23 108.784 203.647C101.139 209.72 92.9439 215.128 84.1624 219.419C77.3077 222.77 61.636 229.145 61.5916 229.163C56.344 231.61 52.1353 237.896 49.2318 243.721C46.5148 249.173 43.6291 260.069 49.6491 260.486C67.1322 261.585 82.2356 259.679 99.106 255.184C107.852 263.421 117.477 270.717 128.452 275.709C144.061 282.802 162.05 284.903 178.21 278.333C194.175 271.843 208.675 257.8 218.486 244.031C229.274 228.888 238.828 212.628 247.219 196.048C255.575 179.549 266.665 154.609 269.914 133.73C269.923 133.73 272.649 131.034 273.484 129.057C274.212 127.328 273.839 125.777 272.853 124.429V124.429Z" fill="#24334A"/>
<path d="M69.7425 226.166C77.9824 222.974 85.8404 218.923 93.583 214.685C93.9826 214.463 93.6274 213.851 93.219 214.073C85.5297 218.284 77.7338 222.309 69.5472 225.483C69.121 225.643 69.3074 226.335 69.7336 226.166H69.7425Z" fill="#73DDDA"/>
<path d="M275.508 2.93049C273.999 1.44101 272.081 0.332766 269.959 0.0490558C266.789 -0.37651 260.671 1.9907 262.189 6.21975C263.308 9.34943 266.922 10.4488 270.181 10.2183C271.371 10.5109 272.605 10.6173 273.866 10.502C275.482 10.3513 277.826 9.92572 278.199 8.01954C278.554 6.19316 276.698 4.09193 275.517 2.92162L275.508 2.93049Z" fill="#24334A"/>
<path d="M286.057 24.6519C288.72 24.6519 290.878 22.4965 290.878 19.8376C290.878 17.1788 288.72 15.0234 286.057 15.0234C283.394 15.0234 281.235 17.1788 281.235 19.8376C281.235 22.4965 283.394 24.6519 286.057 24.6519Z" fill="#E0785E"/>
<path d="M284.414 20.3786C284.29 19.3413 284.521 18.109 285.702 17.8252C286.146 17.7189 285.959 17.0362 285.515 17.1426C284.041 17.4883 283.544 19.0221 283.704 20.3786C283.757 20.8308 284.467 20.8308 284.414 20.3786Z" fill="#24334A"/>
<path d="M40.326 234.199C38.2039 234.234 36.0995 234.199 33.9596 234.075C29.2271 233.826 24.5744 235.883 20.6498 238.57C15.4555 242.134 11.5842 247.276 7.87268 252.276C5.52859 255.441 3.31768 258.704 1.22219 262.047C-1.43267 266.258 0.112299 274.273 7.09132 270.735C11.6907 268.412 16.0415 265.708 20.197 262.685C22.6298 260.903 25.0805 259.068 27.9218 257.977C29.7598 257.268 31.6688 256.922 33.6134 256.718C33.7821 255.317 33.569 253.89 32.5656 252.693C31.5356 251.452 30.1327 250.734 28.6588 250.592C31.2604 244.288 35.256 238.694 40.326 234.19V234.199Z" fill="#F5E3D9"/>
<path d="M82.9459 207.255C80.8859 205.243 77.9647 201.173 75.2654 199.71C72.6106 198.265 69.6804 198.762 67.1765 199.462C58.8656 201.803 50.9276 205.074 42.9098 208.026C40.468 208.931 37.893 209.897 36.1616 211.768C34.2437 213.825 34.9008 216.547 37.9996 217.894C40.0951 218.807 42.3237 218.666 44.4459 218.666C46.8876 218.674 57.4982 217.185 59.9755 217.655C62.8346 218.205 64.6726 219.18 66.5727 220.625C67.5139 218.932 67.6471 216.981 66.9634 215.226C71.8114 211.644 77.2011 208.957 82.9548 207.264L82.9459 207.255Z" fill="#F5E3D9"/>
<path d="M299.473 88.5312C299.278 87.5737 299.269 87.5826 299.136 86.7581C298.452 88.4958 297.875 88.478 297.129 89.9232C297.236 93.6026 297.093 97.8316 296.649 100.332C294.474 112.487 286.705 120.617 278.5 126.398C279.424 130.246 279.655 134.217 279.522 138.26C287.797 131.531 295.469 124.438 298.78 114.269C302.279 103.524 301.293 96.3067 299.482 88.549L299.473 88.5312Z" fill="#24334A"/>
<path d="M296.303 66.384C299.429 70.8524 302.155 76.1542 301.098 81.7752C300.352 85.7295 297.617 88.7705 295.131 91.7938C294.847 92.1484 295.344 92.6538 295.637 92.2991C298.399 88.9389 301.284 85.6585 301.906 81.2078C302.678 75.6489 300.015 70.4534 296.916 66.0293C296.658 65.657 296.037 66.0116 296.303 66.3928V66.384Z" fill="#24334A"/>
<path d="M130.805 81.9881C130.876 89.4089 131.799 96.8918 135.653 103.382C135.884 103.772 136.505 103.417 136.265 103.018C132.483 96.6346 131.586 89.2848 131.515 81.9881C131.515 81.5271 130.796 81.5271 130.805 81.9881Z" fill="#24334A"/>
<path d="M80.2556 113.32C84.5087 111.184 88.8062 109.162 93.1659 107.247C93.5832 107.061 93.2192 106.449 92.8018 106.635C88.4422 108.55 84.1447 110.572 79.8915 112.709C79.4831 112.913 79.8383 113.533 80.2556 113.32Z" fill="#24334A"/>
<path d="M83.3366 105.766C86.6397 104.401 89.9339 103.045 93.2369 101.679C93.6542 101.511 93.4678 100.819 93.0504 100.997C89.7474 102.362 86.4532 103.718 83.1502 105.084C82.7329 105.252 82.9193 105.944 83.3366 105.766Z" fill="#24334A"/>
<path d="M296.632 222.159C297.821 225.448 298.887 228.773 299.837 232.133C299.961 232.576 300.645 232.39 300.521 231.947C299.571 228.587 298.505 225.262 297.315 221.973C297.164 221.547 296.472 221.733 296.632 222.159V222.159Z" fill="#24334A"/>
<path d="M302.945 219.428C303.815 222.114 304.694 224.801 305.564 227.487C305.706 227.921 306.39 227.735 306.248 227.301C305.378 224.614 304.499 221.928 303.629 219.242C303.486 218.807 302.803 218.993 302.945 219.428Z" fill="#24334A"/>
<path d="M99.5411 255.353C120.514 250.228 141.442 243.969 160.523 233.667C169.127 229.021 177.322 223.568 184.754 217.203C192.168 210.855 198.49 203.585 204.217 195.712C211.25 186.057 217.616 175.87 222.988 165.204C223.192 164.796 222.58 164.433 222.375 164.84C217.758 174.008 212.386 182.803 206.535 191.234C200.817 199.471 194.619 207.299 187.205 214.091C172.057 227.957 153.509 237.541 134.285 244.457C122.858 248.562 111.137 251.78 99.3546 254.661C98.9106 254.768 99.0971 255.459 99.5411 255.344V255.353Z" fill="#73DDDA"/>
<path d="M217.616 122.133C228.031 120.732 238.5 120.014 248.915 121.85C256.862 123.25 265.688 126.407 269.346 134.209C269.541 134.625 270.154 134.262 269.959 133.845C266.371 126.203 257.83 122.798 250.007 121.326C239.166 119.287 228.289 119.979 217.421 121.442C216.968 121.504 217.163 122.186 217.607 122.124L217.616 122.133Z" fill="#73DDDA"/>
<path d="M5.28869 270.726C3.38855 266.48 5.30644 262.233 7.81037 258.731C10.0213 255.628 12.5518 252.702 15.0913 249.865C19.9393 244.448 25.2046 239.43 30.8074 234.81C31.1625 234.518 30.6564 234.021 30.3013 234.305C23.6153 239.82 17.4176 245.902 11.8415 252.525C7.6239 257.534 1.5328 264.068 4.66714 271.09C4.85361 271.507 5.46627 271.143 5.27981 270.726H5.28869Z" fill="#24334A"/>
<path d="M14.6386 265.761C11.4598 264.777 12.5964 261.151 14.1857 259.431C15.4377 258.075 17.0448 257.002 18.5809 255.991C21.7508 253.908 25.1692 252.294 28.7653 251.088C29.2004 250.946 29.0139 250.255 28.5788 250.406C23.3934 252.152 17.8351 254.759 13.9282 258.686C11.7706 260.85 10.6785 265.292 14.461 266.462C14.8961 266.595 15.0914 265.912 14.6474 265.779L14.6386 265.761Z" fill="#24334A"/>
<path d="M27.1581 238.055C31.4112 239.288 34.3679 237.293 37.8042 235.041C38.186 234.793 37.8308 234.172 37.4401 234.429C34.217 236.548 31.3668 238.534 27.3445 237.373C26.9006 237.248 26.7141 237.931 27.1581 238.055V238.055Z" fill="#24334A"/>
<path d="M19.611 255.716C20.3658 257.489 21.1205 259.262 21.8664 261.036C22.0439 261.452 22.6566 261.098 22.479 260.672C21.7243 258.899 20.9696 257.126 20.2237 255.353C20.0461 254.936 19.4335 255.291 19.611 255.716Z" fill="#24334A"/>
<path d="M22.4878 253.792C23.2247 255.468 23.8729 257.179 24.4412 258.917C24.5833 259.351 25.2758 259.165 25.1249 258.731C24.53 256.931 23.8552 255.175 23.1004 253.438C22.914 253.021 22.3013 253.384 22.4878 253.801V253.792Z" fill="#24334A"/>
<path d="M36.357 215.926C36.8631 211.706 42.9808 210.846 46.2928 209.782L55.6425 206.759C62.0178 204.693 68.4019 202.636 74.7771 200.57C75.2122 200.428 75.0257 199.746 74.5906 199.887C66.7326 202.432 58.8656 204.976 51.0076 207.512C47.2695 208.718 43.3449 209.711 39.7222 211.227C37.5734 212.122 35.9308 213.541 35.6466 215.935C35.5934 216.387 36.3037 216.387 36.357 215.935V215.926Z" fill="#24334A"/>
<path d="M46.6835 218.869C49.8001 211.617 61.3785 214.25 67.1589 215.917C67.6028 216.041 67.7893 215.358 67.3453 215.234C61.2453 213.479 49.3561 210.863 46.062 218.515C45.8844 218.931 46.4971 219.295 46.6746 218.878L46.6835 218.869Z" fill="#24334A"/>
<path d="M70.8082 202.219C71.6162 203.389 73.4364 203.753 74.7328 204.001C76.2866 204.294 77.7517 204.205 79.1901 203.514C79.6074 203.319 79.2434 202.698 78.8261 202.902C77.6451 203.469 76.4376 203.558 75.159 203.345C74.0757 203.168 72.0779 202.813 71.4208 201.865C71.1634 201.492 70.5418 201.847 70.8082 202.228V202.219Z" fill="#24334A"/>
<path d="M57.3919 213.594C56.7615 214.693 56.2376 215.837 55.8114 217.025C55.6605 217.46 56.3442 217.646 56.4951 217.211C56.8947 216.077 57.4008 214.995 58.0046 213.949C58.2354 213.55 57.6139 213.195 57.3919 213.585V213.594Z" fill="#24334A"/>
<path d="M60.8191 214.197C60.3129 215.19 59.7979 216.183 59.2918 217.176C59.0876 217.584 59.7003 217.947 59.9045 217.539C60.4106 216.546 60.9256 215.553 61.4317 214.56C61.6359 214.153 61.0233 213.789 60.8191 214.197Z" fill="#24334A"/>
<path d="M287.504 32.4188C287.93 34.1743 289.031 35.9475 290.514 36.6124L291.411 34.0324C290.194 33.5448 289.067 32.8976 288.046 32.0908C287.797 31.8957 287.433 32.1085 287.513 32.4188H287.504Z" fill="#24334A"/>
<path d="M296.081 11.4948C296.365 12.8336 294.829 12.5853 293.666 13.7113C292.601 14.7398 291.677 15.1033 291.278 14.4649C290.798 13.6847 291.455 12.0888 293.258 11.0781C294.954 10.1295 295.877 10.5196 296.081 11.5037V11.4948Z" fill="#24334A"/>
<path d="M295.202 14.35C294.163 14.6603 294.732 16.1143 295.096 16.664C295.327 17.0186 295.717 17.4087 296.188 17.258C296.872 17.0452 296.641 16.0966 296.472 15.6089C296.286 15.0592 295.886 14.146 295.202 14.35V14.35Z" fill="#24334A"/>
<path d="M299.589 23.987C299.509 23.5437 299.438 23.1092 299.358 22.7014C298.656 22.8787 297.777 23.0206 296.525 23.127C297.609 24.0756 298.621 24.6963 299.749 25.0598C299.704 24.6963 299.642 24.3327 299.589 23.9781V23.987Z" fill="white"/>
<path d="M46.4436 256.727C46.4259 247.613 51.7356 239.243 57.3916 232.461C57.6846 232.115 57.1785 231.601 56.8855 231.955C51.0963 238.889 45.7067 247.4 45.7244 256.727C45.7244 257.188 46.4347 257.188 46.4347 256.727H46.4436Z" fill="#73DDDA"/>
<path d="M285.613 23.3753C285.613 24.0757 285.045 24.652 284.334 24.652C283.624 24.652 283.056 24.0846 283.056 23.3753C283.056 22.6661 283.624 22.0986 284.334 22.0986C285.045 22.0986 285.613 22.6661 285.613 23.3753Z" fill="#FFBE63"/>
<path d="M285.613 23.3753C285.613 24.0757 285.045 24.652 284.334 24.652C283.624 24.652 283.056 24.0846 283.056 23.3753C283.056 22.6661 283.624 22.0986 284.334 22.0986C285.045 22.0986 285.613 22.6661 285.613 23.3753Z" fill="#FFBE63"/>
<path d="M264.01 8.68439C266.558 7.69141 268.982 8.02831 271.593 7.62048C273.706 7.29244 275.553 6.16646 277.337 5.05822C277.728 4.81884 277.373 4.19823 276.973 4.44647C274.62 5.90935 272.534 6.89347 269.71 7.02646C267.588 7.12399 265.83 7.22151 263.823 8.00171C263.397 8.17017 263.584 8.85285 264.01 8.68439Z" fill="#73DDDA"/>
<path d="M194.088 199.877C188.883 196.956 182.011 197.679 176.904 200.433C168.714 204.846 163.776 213.372 157.813 220.141C151.877 226.875 144.079 231.623 136.414 236.169C130.077 239.92 119.364 243.971 119.007 252.629C118.722 259.628 126.672 259.787 131.503 258.136C135.3 256.848 138.776 254.659 142.287 252.788C146.842 250.361 151.396 247.933 155.951 245.498C164.828 240.767 173.714 236.072 182.564 231.297C189.106 227.775 196.084 223.565 198.892 216.346C201.2 210.397 200.042 203.204 194.097 199.868L194.088 199.877Z" fill="#BFB61F"/>
<path d="M147.593 214.174C146.659 212.259 144.396 211.733 142.528 212.118C137.437 213.179 133.288 218.146 129.553 221.555C127.703 223.236 125.198 227.367 128.933 228.757C131.349 229.658 134.716 227.837 136.862 226.823C139.915 225.376 142.914 223.433 145.348 221.001C147.027 219.32 148.814 216.663 147.602 214.174H147.593Z" fill="#F2F2F2"/>
</svg>
