<svg width="47" height="950" viewBox="0 0 47 950" fill="none" xmlns="http://www.w3.org/2000/svg">
<path d="M-58.7475 0.764077C-43.4475 70.8238 -23.9858 124.039 -8.89412 159.933C23.3928 236.711 57.7106 286.578 42.2902 331.607C34.4529 354.505 19.0537 360.677 18.4715 387.191C17.8085 417.404 37.4181 427.051 35.4531 455.932C33.4902 484.743 13.4106 483.428 10.0929 513.429C6.60443 545.024 27.2938 560.718 20.4572 592.297C17.4675 606.099 12.14 609.468 6.85304 620.336C-16.8394 669.041 34.3967 716.108 25.0807 791.6C20.1582 831.479 3.52535 837.277 -3.97888 900.017C-6.4678 920.822 -6.80753 938.306 -6.69105 949.942C-8.08113 848.364 -10.812 746.801 -14.8844 645.247C-23.5058 430.362 -38.1237 215.534 -58.7475 0.764077Z" fill="#BFB61F"/>
</svg>
