<svg width="74" height="952" viewBox="0 0 74 952" fill="none" xmlns="http://www.w3.org/2000/svg">
<path d="M-30.0537 0.576976C-16.8845 71.2707 2.60055 125.301 18.1193 161.83C51.3209 239.965 89.0277 291.283 66.9498 335.642C55.7281 358.199 36.6343 363.713 33.9115 390.194C30.8092 420.371 53.7903 430.853 49.2148 459.642C44.6472 488.362 20.4633 486.19 14.1666 516.042C7.54203 547.479 31.3687 564.051 20.6961 595.33C16.0294 609.001 9.32984 612.142 2.10841 622.781C-30.2536 670.463 28.1273 719.702 11.1126 794.777C2.12302 834.435 -18.4341 839.522 -32.2867 901.925C-36.881 922.619 -38.6231 940.084 -39.3682 951.721C-33.3151 850.111 -28.8847 748.459 -26.0774 646.758C-20.1426 431.563 -21.4642 216.169 -30.0537 0.576976Z" fill="#BFB61F"/>
</svg>
