<svg width="35" height="16" viewBox="0 0 35 16" fill="none" xmlns="http://www.w3.org/2000/svg">
<g clip-path="url(#clip0_791_1921)">
<path d="M27 0C26.7928 0 26.5941 0.0823097 26.4476 0.228823C26.3011 0.375336 26.2188 0.57405 26.2188 0.78125V15.2188C26.2188 15.426 26.3011 15.6247 26.4476 15.7712C26.5941 15.9177 26.7928 16 27 16C27.2072 16 27.4059 15.9177 27.5524 15.7712C27.6989 15.6247 27.7812 15.426 27.7812 15.2188V0.78125C27.7812 0.57405 27.6989 0.375336 27.5524 0.228823C27.4059 0.0823097 27.2072 0 27 0Z" fill="#007299"/>
<path d="M34.2188 7.21875H19.7812C19.574 7.21875 19.3753 7.30106 19.2288 7.44757C19.0823 7.59409 19 7.7928 19 8C19 8.2072 19.0823 8.40591 19.2288 8.55243C19.3753 8.69894 19.574 8.78125 19.7812 8.78125H34.2188C34.426 8.78125 34.6247 8.69894 34.7712 8.55243C34.9177 8.40591 35 8.2072 35 8C35 7.7928 34.9177 7.59409 34.7712 7.44757C34.6247 7.30106 34.426 7.21875 34.2188 7.21875Z" fill="#007299"/>
</g>
<g clip-path="url(#clip1_791_1921)">
<path d="M8 0C7.7928 0 7.59409 0.0823099 7.44757 0.228823C7.30106 0.375335 7.21875 0.57405 7.21875 0.78125V15.2188C7.21875 15.426 7.30106 15.6247 7.44757 15.7712C7.59409 15.9177 7.7928 16 8 16C8.2072 16 8.40591 15.9177 8.55243 15.7712C8.69894 15.6247 8.78125 15.426 8.78125 15.2188V0.78125C8.78125 0.57405 8.69894 0.375335 8.55243 0.228823C8.40591 0.0823099 8.2072 0 8 0Z" fill="white"/>
<path d="M15.2188 7.21875H0.78125C0.57405 7.21875 0.375336 7.30106 0.228823 7.44757C0.08231 7.59409 0 7.7928 0 8C0 8.2072 0.08231 8.40591 0.228823 8.55243C0.375336 8.69894 0.57405 8.78125 0.78125 8.78125H15.2188C15.426 8.78125 15.6247 8.69894 15.7712 8.55243C15.9177 8.40591 16 8.2072 16 8C16 7.7928 15.9177 7.59409 15.7712 7.44757C15.6247 7.30106 15.426 7.21875 15.2188 7.21875Z" fill="white"/>
</g>
<defs>
<clipPath id="clip0_791_1921">
<rect width="16" height="16" fill="white" transform="matrix(1 0 0 -1 19 16)"/>
</clipPath>
<clipPath id="clip1_791_1921">
<rect width="16" height="16" fill="white" transform="matrix(1 0 0 -1 0 16)"/>
</clipPath>
</defs>
</svg>
