<svg width="42" height="943" viewBox="0 0 42 943" fill="none" xmlns="http://www.w3.org/2000/svg">
<path d="M85.6217 942.436C73.2516 872.466 57.3537 819.04 45.0012 782.933C18.5744 705.7 -9.65881 655.062 3.33371 610.989C9.9371 588.579 22.7357 583.011 23.3388 556.758C24.0259 526.843 7.8075 516.583 9.56824 488.034C11.3269 459.554 27.9728 461.573 30.8604 431.961C33.8968 400.777 16.8104 384.488 22.6234 353.439C25.1654 339.868 29.5988 336.72 34.0326 326.139C53.9018 278.718 11.6256 230.253 19.6941 155.776C23.9573 116.434 37.7773 111.281 44.2854 49.3764C46.4439 28.8481 46.805 11.5341 46.7612 -1.56036e-05C47.4528 100.707 49.2564 201.448 52.1724 302.227C58.3465 515.473 69.4936 728.877 85.6217 942.436Z" fill="#066383"/>
</svg>
