<svg width="36" height="17" viewBox="0 0 36 17" fill="none" xmlns="http://www.w3.org/2000/svg">
<g clip-path="url(#clip0_793_1926)">
<path d="M16.8876 8.22764L13.0241 4.36406C12.8853 4.202 12.6414 4.18311 12.4793 4.32193C12.3173 4.46071 12.2984 4.70462 12.4372 4.86668C12.4502 4.88179 12.4642 4.8959 12.4793 4.90881L15.6822 8.11558H0.386345C0.172985 8.11558 0 8.28857 0 8.50196C0 8.71535 0.172985 8.8883 0.386345 8.8883H15.6822L12.4793 12.0912C12.3173 12.23 12.2984 12.4739 12.4372 12.6359C12.576 12.798 12.8199 12.8169 12.982 12.6781C12.9971 12.6651 13.0112 12.651 13.0241 12.6359L16.8877 8.77236C17.0375 8.62172 17.0375 8.37835 16.8876 8.22764Z" fill="white"/>
</g>
<g clip-path="url(#clip1_793_1926)">
<path d="M35.8876 8.22764L32.0241 4.36406C31.8853 4.202 31.6414 4.18311 31.4793 4.32193C31.3173 4.46071 31.2984 4.70462 31.4372 4.86668C31.4502 4.88179 31.4642 4.8959 31.4793 4.90881L34.6822 8.11558H19.3863C19.173 8.11558 19 8.28857 19 8.50196C19 8.71535 19.173 8.8883 19.3863 8.8883H34.6822L31.4793 12.0912C31.3173 12.23 31.2984 12.4739 31.4372 12.6359C31.576 12.798 31.8199 12.8169 31.982 12.6781C31.9971 12.6651 32.0112 12.651 32.0241 12.6359L35.8877 8.77236C36.0375 8.62172 36.0375 8.37835 35.8876 8.22764Z" fill="black"/>
</g>
<defs>
<clipPath id="clip0_793_1926">
<rect width="17" height="17" fill="white"/>
</clipPath>
<clipPath id="clip1_793_1926">
<rect width="17" height="17" fill="white" transform="translate(19)"/>
</clipPath>
</defs>
</svg>
