<svg width="44" height="583" viewBox="0 0 44 583" fill="none" xmlns="http://www.w3.org/2000/svg">
<path d="M92.7292 579.16C51.242 582.221 85.9196 579.662 43.4902 582.793C21.7241 527.157 -9.36715 473.06 3.08355 441.179C9.4118 424.968 20.8695 420.887 21.9638 401.931C23.2104 380.329 9.06038 372.999 11.2291 352.379C13.3946 331.809 28.0992 333.187 31.2889 311.795C34.6441 289.266 19.8536 277.587 25.6658 255.142C28.2073 245.332 32.2023 243.038 36.3561 235.378C54.9706 201.048 18.5492 166.257 27.2858 112.448C31.9018 84.0234 41.6806 80.3913 48.7667 35.6672C51.2328 15.1617 50.5268 0.697122 50.5268 0.697122C54.3484 76.2651 48.7423 0.284407 64.8284 218.3C76.8174 380.789 82.9947 425.051 92.7292 579.16Z" fill="#007299"/>
</svg>
